#!OML:ASF F:\twosubjects\two\Thursday\Session 1\justin.ASF
:FULLY-SPECIFIED
:DEGREES
522
root 6.96978 17.1885 -8.96565 19.311 -4.51717 1.71677
lowerback 21.5917 0.252216 -2.25074
upperback 5.58371 -0.00218124 2.24546
thorax -5.96074 0.0143431 3.71617
lowerneck -20.442 -3.47862 -9.22922
upperneck 15.457 -3.66858 8.18432
head 8.49732 -1.42999 3.81193
rclavicle -1.15295e-014 2.94201e-014
rhumerus -6.44922 37.1697 -81.7761
rradius 46.7828
rwrist 21.1554
rhand -53.6666 47.4176
rfingers 7.12502
rthumb -26.1041 19.1917
lclavicle -1.15295e-014 2.94201e-014
lhumerus -9.55043 -32.9569 92.187
lradius 43.9077
lwrist -36.4531
lhand -28.2466 64.4441
lfingers 7.12502
lthumb -1.62407 -94.4176
rfemur -43.4109 -5.36309 1.61642
rtibia 30.6234
rfoot -4.25042 -11.8477
rtoes -6.34493
lfemur -17.0863 2.90138 -8.49425
ltibia 30.7923
lfoot -20.3179 -4.38303
ltoes -27.0489
523
root 7.05406 17.1724 -9.02347 19.2475 -5.00918 1.5563
lowerback 21.4525 0.133211 -2.28092
upperback 5.65896 -0.159846 2.29036
thorax -5.79355 -0.0667576 3.82018
lowerneck -20.2898 -3.35433 -9.18597
upperneck 15.3278 -3.56279 8.40336
head 8.42096 -1.35792 3.89322
rclavicle 9.93923e-015 -1.03368e-014
rhumerus -5.41488 37.6875 -81.2831
rradius 46.0035
rwrist 21.9409
rhand -54.2304 47.6309
rfingers 7.12502
rthumb -26.6438 19.4859
lclavicle 9.93923e-015 -1.03368e-014
lhumerus -9.69175 -32.4457 92.3776
lradius 43.9086
lwrist -36.3817
lhand -27.7316 65.159
lfingers 7.12502
lthumb -1.1267 -95.1358
rfemur -43.3993 -5.42729 1.67502
rtibia 30.155
rfoot -4.24808 -13.6993
rtoes -5.57068
lfemur -16.6811 3.30866 -8.90115
ltibia 29.8816
lfoot -20.6314 -3.38479
ltoes -25.7187
524
root 7.13681 17.1432 -9.08553 19.0989 -5.35305 1.51075
lowerback 21.3785 0.00726943 -2.23203
upperback 5.78949 -0.314797 2.27758
thorax -5.6013 -0.148414 3.81482
lowerneck -20.8357 -3.29378 -8.67133
upperneck 15.9441 -3.56915 8.15368
head 8.71055 -1.34476 3.73082
rclavicle 7.95139e-015 -2.38542e-015
rhumerus -4.75877 37.822 -80.9916
rradius 45.4628
rwrist 22.6786
rhand -54.4918 47.4523
rfingers 7.12502
rthumb -26.894 19.3456
lclavicle 7.95139e-015 -2.38542e-015
lhumerus -9.61106 -32.1866 92.4737
lradius 43.806
lwrist -36.4534
lhand -26.3862 65.3536
lfingers 7.12502
lthumb 0.172697 -95.3333
rfemur -43.3366 -5.85103 1.76228
rtibia 29.9218
rfoot -4.90448 -15.7212
rtoes -5.05794
lfemur -16.3513 4.20333 -9.56486
ltibia 28.8169
lfoot -20.7206 -1.07418
ltoes -31.3976
525
root 7.21092 17.1239 -9.15285 19.0871 -5.74154 1.59758
lowerback 21.2109 -0.0569401 -2.4464
upperback 5.83321 -0.442373 2.26938
thorax -5.45411 -0.213039 3.95758
lowerneck -21.4868 -3.23328 -8.25717
upperneck 17.0241 -3.5833 7.98194
head 9.18546 -1.33036 3.61923
rclavicle 2.78299e-015 -2.5842e-014
rhumerus -4.43888 37.8686 -80.7464
rradius 45.1697
rwrist 22.9661
rhand -54.393 48.2305
rfingers 7.12502
rthumb -26.7994 20.1092
lclavicle 2.78299e-015 -2.5842e-014
lhumerus -9.67595 -31.5686 92.8422
lradius 43.6404
lwrist -36.8271
lhand -26.2682 65.5323
lfingers 7.12502
lthumb 0.286682 -95.5119
rfemur -43.4885 -6.41934 1.81916
rtibia 29.7585
rfoot -5.97535 -17.8219
rtoes -4.1002
lfemur -16.176 5.19133 -10.3277
ltibia 27.7815
lfoot -20.6487 1.02671
ltoes -36.1338
526
root 7.27661 17.1172 -9.21953 19.2179 -6.13096 1.84916
lowerback 20.936 -0.0937888 -3.00624
upperback 5.84122 -0.59675 2.33631
thorax -5.28005 -0.289529 4.38475
lowerneck -21.6604 -3.21119 -8.36126
upperneck 17.7312 -3.59757 8.21408
head 9.47045 -1.31486 3.73073
rclavicle 1.66979e-014 -7.55382e-015
rhumerus -3.63735 38.2353 -80.0568
rradius 44.7427
rwrist 22.8535
rhand -54.5691 50.2732
rfingers 7.12502
rthumb -26.9679 22.1779
lclavicle 1.66979e-014 -7.55382e-015
lhumerus -9.76113 -30.6985 93.357
lradius 43.5388
lwrist -37.2099
lhand -27.1297 66.1048
lfingers 7.12502
lthumb -0.54535 -96.0839
rfemur -43.7756 -7.14065 1.8015
rtibia 29.507
rfoot -7.05194 -19.7458
rtoes -1.62387
lfemur -16.2285 5.76819 -11.1621
ltibia 27.069
lfoot -20.6578 2.17398
ltoes -37.2015
527
root 7.34274 17.1216 -9.28368 19.3365 -6.47861 1.87621
lowerback 20.711 -0.0771512 -3.27121
upperback 5.79809 -0.614506 2.49528
thorax -5.20155 -0.298929 4.70992
lowerneck -21.3054 -3.34728 -8.74133
upperneck 18.2042 -3.78134 8.48201
head 9.60366 -1.40427 3.87241
rclavicle -3.33958e-014 3.57812e-015
rhumerus -2.95918 38.5194 -79.3226
rradius 44.2492
rwrist 22.9519
rhand -54.9667 51.3226
rfingers 7.12502
rthumb -27.3483 23.2867
lclavicle -3.33958e-014 3.57812e-015
lhumerus -9.81596 -30.4882 93.925
lradius 43.3728
lwrist -37.1696
lhand -27.4136 66.7664
lfingers 7.12502
lthumb -0.819581 -96.7446
rfemur -43.8997 -7.71473 2.03133
rtibia 29.0549
rfoot -7.95168 -21.565
rtoes 0.885454
lfemur -16.3098 5.84769 -11.592
ltibia 26.8392
lfoot -20.7572 2.68545
ltoes -36.4332
